<svg width="100%" viewBox="0 0 360 360" xmlns="http://www.w3.org/2000/svg" role="img">
<title>Dinosaur silhouette</title>
<desc>Sharp flat logo of a dinosaur silhouette centered in the box.</desc>

<g transform="translate(180 180)">
  <path d="M -105 50
           L -82 50
           L -70 28
           L -55 38
           L -45 12
           L -38 -8
           L -50 -28
           L -32 -42
           L -10 -52
           L 18 -56
           L 42 -50
           L 60 -34
           L 78 -34
           L 92 -18
           L 96 2
           L 86 14
           L 70 14
           L 64 50
           L 52 50
           L 44 38
           L 36 50
           L 18 50
           L 12 28
           L -8 28
           L -16 50
           L -34 50
           L -42 38
           L -52 50
           Z" fill="#1F4D3A"/>
  <path d="M -32 -40 L -24 -55 L -13 -48 L 0 -62 L 14 -53 L 30 -62 L 41.5 -49" fill="#1F4D3A" stroke="#1F4D3A" stroke-width="2" stroke-linejoin="miter"/>
  <circle cx="68" cy="-18" r="4" fill="#E8F1EC"/>
</g>
</svg>
